<svg width="75" height="103" viewBox="0 0 75 103" fill="none" xmlns="http://www.w3.org/2000/svg">
<path fill-rule="evenodd" clip-rule="evenodd" d="M0 0.863813L14.5754 89.002L19.7584 88.1456L18.9019 82.9554L24.0849 82.0989L23.2284 76.9233L18.0454 77.7798L6.89605 10.3731L12.0864 9.50927L11.2299 4.33371L6.03953 5.1902L5.18302 0L0 0.863813ZM12.0864 9.51659L12.9429 14.6995L18.1259 13.843L17.2621 8.66009L12.0864 9.51659ZM18.1259 13.843L18.9824 19.0259L24.1654 18.1694L23.3089 12.9865L18.1259 13.843ZM24.1654 18.1694L25.022 23.3522L30.2123 22.4957L29.3485 17.3129L24.1654 18.1694ZM30.2123 22.4957L31.0688 27.6859L36.2518 26.8295L35.3953 21.6393L30.2123 22.4957ZM36.2518 26.8295L37.1083 32.0123L42.2987 31.1558L41.4348 25.9656L36.2518 26.8295ZM42.2987 31.1558L43.1552 36.3387L48.3382 35.4822L47.4817 30.2993L42.2987 31.1558ZM48.3382 35.4822L49.1947 40.6651L54.3851 39.8086L53.5286 34.6257L48.3382 35.4822ZM54.3851 39.8086L55.2416 44.9915L60.4173 44.135L59.5608 38.9521L54.3851 39.8086ZM60.4173 44.135L61.2811 49.3179L45.7247 51.8947L48.3016 67.4506L53.4846 66.5941L51.7716 56.2211L72.5037 52.7878L71.6472 47.6049L66.4641 48.4614L65.6076 43.2785L60.4173 44.135ZM53.4846 66.5941L55.1977 76.9599L60.3807 76.1034L58.6676 65.7303L53.4846 66.5941ZM60.3807 76.1034L62.101 86.4692L67.2767 85.6127L65.5637 75.2469L60.3807 76.1034ZM67.2767 85.6127L68.9971 95.9858L74.1801 95.1293L72.4671 84.7562L67.2767 85.6127ZM68.9971 95.9858L58.631 97.6987L59.4876 102.889L69.8536 101.169L68.9971 95.9858ZM58.631 97.6987L56.9107 87.3257L51.7277 88.1895L53.4407 98.5552L58.631 97.6987ZM51.7277 88.1895L50.0146 77.8164L44.8243 78.6729L46.5447 89.046L51.7277 88.1895ZM44.8243 78.6729L43.1113 68.3071L37.9283 69.1636L39.6413 79.5294L44.8243 78.6729ZM37.9283 69.1636L36.2079 58.7905L31.0249 59.647L31.8814 64.8372L26.6984 65.6937L27.5549 70.8766L37.9283 69.1636ZM27.5549 70.8766L22.3719 71.7331L23.2284 76.9233L28.4114 76.0668L27.5549 70.8766Z" fill="#FFEF98"/>
<path d="M6.89844 10.3732L18.0478 77.7799L23.2308 76.9234L22.3743 71.7332L27.5573 70.8767L26.7008 65.6939L31.8838 64.8374L31.0273 59.6472L36.2103 58.7907L37.9307 69.1638L43.1137 68.3073L44.8267 78.673L50.017 77.8165L51.7301 88.1896L56.9131 87.3258L58.6334 97.6989L68.9995 95.9859L67.2791 85.6128L62.1034 86.4693L60.3831 76.1036L55.2001 76.96L53.487 66.5943L48.304 67.4508L45.7271 51.8948L61.2835 49.318L60.4197 44.1351L55.244 44.9916L54.3875 39.8088L49.1971 40.6652L48.3406 35.4824L43.1576 36.3389L42.3011 31.156L37.1107 32.0125L36.2542 26.8296L31.0712 27.6861L30.2147 22.4959L25.0244 23.3597L24.1678 18.1695L18.9848 19.026L18.1283 13.8431L12.9453 14.6996L12.0888 9.51672L6.89844 10.3732Z" fill="black"/>
</svg>
