<svg width="198" height="146" viewBox="0 0 198 146" fill="none" xmlns="http://www.w3.org/2000/svg">
<path d="M102.476 10.7098C102.476 10.7098 99.9721 0 89.262 0H23.3909C17.3147 0 12.4978 4.81686 12.4978 10.7098L0.894531 144.952H186.202L197.805 10.7098H102.476Z" fill="#37321B"/>
<path d="M90.6896 15.5266C90.6896 15.5266 88.1932 4.81677 77.4831 4.81677H11.6046C5.71152 4.81677 0.894531 9.63363 0.894531 15.5266V144.952H186.202V15.5266H90.6896Z" fill="#FFEF98"/>
<path d="M186.201 145.845H0.893119C0.358712 145.845 0 145.487 0 144.952V15.5266C0 9.09926 5.17569 3.92371 11.6032 3.92371H77.4817C87.1157 3.92371 90.5124 12.1373 91.4056 14.6335H186.201C186.735 14.6335 187.094 14.9922 187.094 15.5266V144.952C187.094 145.487 186.735 145.845 186.201 145.845ZM1.78624 144.059H185.307V16.4197H90.6881C90.3294 16.4197 89.978 16.061 89.795 15.7096C89.6193 15.3509 87.2987 5.7099 77.4817 5.7099H11.6032C6.24451 5.7099 1.78624 10.1754 1.78624 15.5266V144.059Z" fill="#FFF8D2"/>
<path d="M10.6668 74.0833C10.5002 74.0833 10.3798 74.0185 10.3057 73.8889C10.2316 73.7592 10.1946 73.6203 10.1946 73.4722C10.2131 73.1573 10.2872 72.9814 10.4168 72.9443C10.5465 72.9073 10.7039 72.8888 10.8891 72.8888C11.4818 72.8888 11.8985 72.7869 12.1392 72.5832C12.38 72.3609 12.5282 72.0924 12.5837 71.7775C12.6578 71.4442 12.6948 71.1015 12.6948 70.7496V59.7207C12.6948 59.3688 12.6578 59.0354 12.5837 58.7205C12.5282 58.3872 12.38 58.1186 12.1392 57.9149C11.8985 57.6927 11.4818 57.5815 10.8891 57.5815C10.7039 57.5815 10.5465 57.563 10.4168 57.526C10.2872 57.4889 10.2131 57.313 10.1946 56.9981C10.1946 56.85 10.2316 56.7111 10.3057 56.5814C10.3798 56.4518 10.5002 56.387 10.6668 56.387C11.278 56.4055 11.8429 56.424 12.3615 56.4425C12.8801 56.461 13.4172 56.4703 13.9728 56.4703H18.3066C20.0845 56.4703 21.6958 56.8222 23.1404 57.526C24.585 58.2298 25.7333 59.2391 26.5853 60.5541C27.4372 61.869 27.8632 63.4618 27.8632 65.3324C27.8632 66.814 27.5761 68.1012 27.002 69.1939C26.4278 70.2866 25.6592 71.1941 24.6962 71.9164C23.7331 72.6202 22.6496 73.1481 21.4458 73.4999C20.2605 73.8333 19.0474 74 17.8065 74H13.9728C13.4172 74 12.8801 74 12.3615 74C11.8429 74.0185 11.278 74.0463 10.6668 74.0833ZM18.2232 72.9721C19.7234 72.9721 20.9365 72.6573 21.8625 72.0276C22.7885 71.3793 23.4553 70.4811 23.8627 69.3328C24.2887 68.1845 24.5017 66.8511 24.5017 65.3324C24.5017 63.8137 24.2332 62.4617 23.6961 61.2764C23.159 60.0911 22.3718 59.165 21.3347 58.4983C20.3161 57.813 19.0752 57.4704 17.6121 57.4704C17.3157 57.4704 16.9268 57.4797 16.4453 57.4982C15.9637 57.4982 15.6304 57.4982 15.4452 57.4982V71.083C15.4452 71.8238 15.6674 72.3239 16.1119 72.5832C16.5749 72.8425 17.2787 72.9721 18.2232 72.9721ZM36.8236 74.3334C35.5271 74.3334 34.3881 74.0278 33.4065 73.4166C32.4435 72.8054 31.6934 72.009 31.1563 71.0275C30.6192 70.0459 30.3506 68.9995 30.3506 67.8882C30.3506 66.7955 30.5451 65.8232 30.934 64.9712C31.323 64.1193 31.8323 63.4062 32.462 62.8321C33.1102 62.258 33.814 61.8227 34.5733 61.5264C35.3327 61.2301 36.0828 61.0819 36.8236 61.0819C38.12 61.0819 39.2498 61.3875 40.2128 61.9987C41.1944 62.6099 41.9538 63.4062 42.4909 64.3878C43.028 65.3694 43.2965 66.4158 43.2965 67.5271C43.2965 68.6198 43.0928 69.5921 42.6853 70.4441C42.2964 71.296 41.7778 72.009 41.1296 72.5832C40.4999 73.1573 39.8054 73.5925 39.046 73.8889C38.2867 74.1852 37.5459 74.3334 36.8236 74.3334ZM36.8236 73.3055C37.7311 73.3055 38.4441 73.0369 38.9627 72.4998C39.4998 71.9627 39.8795 71.259 40.1017 70.3885C40.3425 69.4995 40.4629 68.5457 40.4629 67.5271C40.4629 66.5455 40.3425 65.6472 40.1017 64.8323C39.8609 64.0174 39.472 63.3599 38.9349 62.8599C38.3978 62.3598 37.694 62.1098 36.8236 62.1098C35.9161 62.1098 35.1938 62.3784 34.6567 62.9155C34.1196 63.434 33.7399 64.1285 33.5177 64.999C33.2954 65.851 33.1843 66.7955 33.1843 67.8327C33.1843 68.7957 33.2954 69.694 33.5177 70.5274C33.7584 71.3608 34.1474 72.0368 34.6845 72.5554C35.2216 73.0555 35.9346 73.3055 36.8236 73.3055ZM50.2545 74.2778L46.6986 64.4156C46.4022 63.7304 46.1152 63.2488 45.8374 62.971C45.5596 62.6747 45.1429 62.4895 44.5872 62.4154C44.3465 62.3784 44.1798 62.3413 44.0872 62.3043C44.0131 62.2672 43.9668 62.1283 43.9483 61.8876C43.9298 61.5727 44.0131 61.406 44.1983 61.3875C44.402 61.3505 44.6428 61.3227 44.9206 61.3042C46.0689 61.2486 46.9671 61.4153 47.6153 61.8042C48.2636 62.1931 48.7914 62.8506 49.1989 63.7767L51.7547 70.9719H51.838C52.0232 70.3792 52.2455 69.6384 52.5048 68.7494C52.7641 67.8419 53.0233 66.9066 53.2826 65.9436C53.5604 64.9805 53.8105 64.0915 54.0327 63.2766C54.255 62.4432 54.4216 61.8227 54.5328 61.4153H55.8662L59.6722 70.9719H59.7556C60.0149 70.194 60.2649 69.3421 60.5056 68.4161C60.7464 67.4715 60.9687 66.5733 61.1724 65.7213C61.3761 64.8508 61.5521 64.1378 61.7002 63.5822C61.8113 63.0821 61.7928 62.758 61.6447 62.6099C61.4965 62.4617 61.1631 62.3876 60.6446 62.3876C60.4779 62.3876 60.339 62.3784 60.2278 62.3598C60.1167 62.3228 60.0519 62.1654 60.0334 61.8876C60.0334 61.7764 60.0612 61.6561 60.1167 61.5264C60.1908 61.3968 60.2927 61.3319 60.4223 61.3319C60.9594 61.3505 61.4224 61.369 61.8113 61.3875C62.2188 61.406 62.6633 61.4153 63.1448 61.4153C63.6264 61.4153 63.9968 61.406 64.2561 61.3875C64.5339 61.369 64.9413 61.3505 65.4784 61.3319C65.6266 61.3319 65.7284 61.3968 65.784 61.5264C65.8581 61.6561 65.8951 61.7764 65.8951 61.8876C65.8766 62.1654 65.8025 62.3228 65.6729 62.3598C65.5618 62.3784 65.4321 62.3876 65.2839 62.3876C64.6172 62.3876 64.0894 62.4987 63.7004 62.721C63.33 62.9432 63.0615 63.3785 62.8948 64.0267L59.8111 74.2778H58.1721L54.6439 65.1935L51.8936 74.2778H50.2545ZM67.2523 74.0833C67.1226 74.0833 67.0115 74.0278 66.9189 73.9167C66.8448 73.787 66.8078 73.6574 66.8078 73.5277C66.8448 73.2499 66.9189 73.1018 67.03 73.0832C67.1411 73.0462 67.2893 73.0277 67.4745 73.0277C67.9931 73.0277 68.345 72.9443 68.5302 72.7776C68.7154 72.5924 68.8172 72.3517 68.8358 72.0553C68.8728 71.759 68.8913 71.4534 68.8913 71.1386V64.7768C68.8913 64.4434 68.8728 64.1378 68.8358 63.86C68.8172 63.5637 68.7154 63.3322 68.5302 63.1655C68.345 62.9803 67.9931 62.8877 67.4745 62.8877C67.3078 62.8877 67.1504 62.8692 67.0022 62.8321C66.8726 62.7765 66.8078 62.6099 66.8078 62.3321C66.8078 62.0542 66.9559 61.8876 67.2523 61.832C68.1042 61.7024 68.7524 61.5727 69.1969 61.4431C69.6599 61.3134 70.0026 61.2023 70.2248 61.1097C70.4656 61.0171 70.6786 60.9615 70.8638 60.943C71.0119 60.9245 71.1323 60.9523 71.2249 61.0264C71.336 61.1004 71.3916 61.2486 71.3916 61.4708V63.221H71.4749C71.8454 62.8692 72.225 62.5358 72.614 62.2209C73.0029 61.8876 73.4566 61.619 73.9752 61.4153C74.5123 61.193 75.1698 61.0819 75.9477 61.0819C77.2071 61.0819 78.2072 61.4616 78.948 62.2209C79.6888 62.9803 80.0592 63.9804 80.0592 65.2213V71.1386C80.0592 71.4534 80.0685 71.759 80.087 72.0553C80.124 72.3517 80.2352 72.5924 80.4204 72.7776C80.6241 72.9443 80.9852 73.0277 81.5038 73.0277C81.6705 73.0277 81.8094 73.0462 81.9205 73.0832C82.0502 73.1018 82.1243 73.2499 82.1428 73.5277C82.1428 73.6574 82.1057 73.787 82.0317 73.9167C81.9576 74.0278 81.8465 74.0833 81.6983 74.0833C81.1612 74.0463 80.6611 74.0185 80.1981 74C79.7536 74 79.2814 74 78.7813 74C78.2812 74 77.809 74 77.3645 74C76.92 74.0185 76.4292 74.0463 75.8921 74.0833C75.7625 74.0833 75.6513 74.0278 75.5587 73.9167C75.4846 73.787 75.4476 73.6574 75.4476 73.5277C75.4661 73.2499 75.5309 73.1018 75.6421 73.0832C75.7717 73.0462 75.9199 73.0277 76.0866 73.0277C76.6051 73.0277 76.957 72.9443 77.1422 72.7776C77.346 72.5924 77.4571 72.3517 77.4756 72.0553C77.5126 71.759 77.5312 71.4534 77.5312 71.1386V65.249C77.5312 64.6379 77.3923 64.1378 77.1145 63.7489C76.8552 63.3599 76.5218 63.0729 76.1143 62.8877C75.7069 62.7025 75.2902 62.6099 74.8642 62.6099C74.2345 62.6099 73.6789 62.7302 73.1974 62.971C72.7158 63.1933 72.3269 63.4525 72.0306 63.7489C71.7342 64.0452 71.5305 64.3045 71.4194 64.5267V71.1386C71.4194 71.4534 71.4286 71.759 71.4472 72.0553C71.4842 72.3517 71.5953 72.5924 71.7805 72.7776C71.9843 72.9443 72.3454 73.0277 72.864 73.0277C73.0307 73.0277 73.1696 73.0462 73.2807 73.0832C73.4103 73.1018 73.4844 73.2499 73.5029 73.5277C73.5029 73.6574 73.4659 73.787 73.3918 73.9167C73.3177 74.0278 73.2066 74.0833 73.0585 74.0833C72.5214 74.0463 72.0213 74.0185 71.5583 74C71.1138 74 70.6415 74 70.1415 74C69.6414 74 69.1691 74 68.7246 74C68.2801 74.0185 67.7894 74.0463 67.2523 74.0833ZM83.605 74.0833C83.4753 74.0833 83.3642 74.0278 83.2716 73.9167C83.1975 73.787 83.1605 73.6574 83.1605 73.5277C83.179 73.2499 83.2438 73.1018 83.3549 73.0832C83.4846 73.0462 83.6327 73.0277 83.7994 73.0277C84.318 73.0277 84.6699 72.9443 84.8551 72.7776C85.0588 72.5924 85.17 72.3517 85.1885 72.0553C85.2255 71.759 85.244 71.4534 85.244 71.1386V57.5815C85.244 57.2482 85.2255 56.9426 85.1885 56.6648C85.17 56.3684 85.0681 56.1369 84.8829 55.9702C84.6977 55.785 84.3458 55.6924 83.8272 55.6924C83.6605 55.6924 83.5031 55.6739 83.3549 55.6369C83.2253 55.5813 83.1605 55.4146 83.1605 55.1368C83.1605 54.859 83.3086 54.6923 83.605 54.6368C84.4569 54.5071 85.1051 54.3775 85.5496 54.2478C86.0126 54.1182 86.3645 54.0071 86.6053 53.9145C86.8461 53.8219 87.059 53.7663 87.2443 53.7478C87.3924 53.7293 87.5128 53.757 87.6054 53.8311C87.7165 53.9052 87.7721 54.0534 87.7721 54.2756V71.1386C87.7721 71.4534 87.7814 71.759 87.7999 72.0553C87.8369 72.3517 87.948 72.5924 88.1332 72.7776C88.337 72.9443 88.6981 73.0277 89.2167 73.0277C89.3834 73.0277 89.5223 73.0462 89.6334 73.0832C89.763 73.1018 89.8371 73.2499 89.8557 73.5277C89.8557 73.6574 89.8186 73.787 89.7445 73.9167C89.6704 74.0278 89.5593 74.0833 89.4112 74.0833C88.8741 74.0463 88.374 74.0185 87.911 74C87.4665 74 86.9942 74 86.4942 74C85.9941 74 85.5218 74 85.0774 74C84.6329 74.0185 84.1421 74.0463 83.605 74.0833ZM97.8926 74.3334C96.5961 74.3334 95.4571 74.0278 94.4755 73.4166C93.5124 72.8054 92.7624 72.009 92.2253 71.0275C91.6882 70.0459 91.4196 68.9995 91.4196 67.8882C91.4196 66.7955 91.6141 65.8232 92.003 64.9712C92.392 64.1193 92.9013 63.4062 93.531 62.8321C94.1792 62.258 94.883 61.8227 95.6423 61.5264C96.4017 61.2301 97.1517 61.0819 97.8926 61.0819C99.189 61.0819 100.319 61.3875 101.282 61.9987C102.263 62.6099 103.023 63.4062 103.56 64.3878C104.097 65.3694 104.365 66.4158 104.365 67.5271C104.365 68.6198 104.162 69.5921 103.754 70.4441C103.365 71.296 102.847 72.009 102.199 72.5832C101.569 73.1573 100.874 73.5925 100.115 73.8889C99.3557 74.1852 98.6149 74.3334 97.8926 74.3334ZM97.8926 73.3055C98.8001 73.3055 99.5131 73.0369 100.032 72.4998C100.569 71.9627 100.948 71.259 101.171 70.3885C101.411 69.4995 101.532 68.5457 101.532 67.5271C101.532 66.5455 101.411 65.6472 101.171 64.8323C100.93 64.0174 100.541 63.3599 100.004 62.8599C99.4668 62.3598 98.763 62.1098 97.8926 62.1098C96.985 62.1098 96.2627 62.3784 95.7257 62.9155C95.1886 63.434 94.8089 64.1285 94.5866 64.999C94.3644 65.851 94.2533 66.7955 94.2533 67.8327C94.2533 68.7957 94.3644 69.694 94.5866 70.5274C94.8274 71.3608 95.2163 72.0368 95.7534 72.5554C96.2905 73.0555 97.0036 73.3055 97.8926 73.3055ZM110.168 74.3334C109.038 74.3334 108.13 74.0093 107.445 73.361C106.778 72.7128 106.445 71.935 106.445 71.0275C106.445 70.0829 106.686 69.3421 107.167 68.805C107.667 68.2679 108.316 67.8697 109.112 67.6104C109.927 67.3511 110.807 67.1752 111.751 67.0826C112.714 66.99 113.649 66.9159 114.557 66.8603V64.6656C114.557 63.7952 114.335 63.1192 113.89 62.6376C113.464 62.1376 112.733 61.8876 111.696 61.8876C111.177 61.8876 110.686 62.0542 110.223 62.3876C109.779 62.721 109.556 63.2025 109.556 63.8322C109.556 64.1285 109.63 64.3786 109.779 64.5823C109.927 64.786 110.075 64.9435 110.223 65.0546C110.371 65.1657 110.445 65.2398 110.445 65.2768C110.445 65.3509 110.334 65.4898 110.112 65.6935C109.908 65.8787 109.621 65.9713 109.251 65.9713C108.677 65.9713 108.232 65.7584 107.917 65.3324C107.602 64.9064 107.445 64.4341 107.445 63.9156C107.445 63.2118 107.658 62.6562 108.084 62.2487C108.528 61.8413 109.093 61.5449 109.779 61.3597C110.464 61.1745 111.158 61.0819 111.862 61.0819C112.696 61.0819 113.501 61.1838 114.279 61.3875C115.076 61.5912 115.724 61.9802 116.224 62.5543C116.742 63.1284 117.002 63.9896 117.002 65.1379V71.6108C117.02 71.7961 117.066 72.0183 117.141 72.2776C117.215 72.5369 117.354 72.7684 117.557 72.9721C117.78 73.1573 118.076 73.2499 118.446 73.2499C118.576 73.2499 118.678 73.2777 118.752 73.3333C118.826 73.3703 118.863 73.4907 118.863 73.6944C118.863 73.8611 118.77 73.9907 118.585 74.0833C118.4 74.1759 118.187 74.2408 117.946 74.2778C117.705 74.3148 117.502 74.3334 117.335 74.3334C116.65 74.3334 116.039 74.1389 115.501 73.75C114.964 73.3425 114.65 72.7869 114.557 72.0831C114.149 72.8239 113.538 73.3888 112.723 73.7778C111.927 74.1482 111.075 74.3334 110.168 74.3334ZM111.057 72.8332C111.686 72.8332 112.26 72.6758 112.779 72.3609C113.316 72.0461 113.742 71.6201 114.057 71.083C114.39 70.5274 114.557 69.9162 114.557 69.2495V67.666C112.649 67.7956 111.288 68.1012 110.473 68.5827C109.658 69.0643 109.251 69.8514 109.251 70.9441C109.251 72.2035 109.853 72.8332 111.057 72.8332ZM126.282 74.3334C125.245 74.3334 124.282 74.0556 123.393 73.4999C122.504 72.9443 121.791 72.1665 121.254 71.1664C120.717 70.1662 120.448 69.0087 120.448 67.6938C120.448 66.5455 120.717 65.4713 121.254 64.4712C121.81 63.4525 122.569 62.6376 123.532 62.0265C124.514 61.3968 125.625 61.0819 126.866 61.0819C127.458 61.0819 128.042 61.156 128.616 61.3042C129.19 61.4338 129.681 61.619 130.088 61.8598H130.172V57.6093C130.172 57.2759 130.153 56.9704 130.116 56.6925C130.098 56.3962 129.996 56.1647 129.811 55.998C129.625 55.8128 129.273 55.7202 128.755 55.7202C128.588 55.7202 128.431 55.7017 128.283 55.6647C128.153 55.6091 128.088 55.4424 128.088 55.1646C128.088 54.8868 128.236 54.7201 128.533 54.6645C129.385 54.5349 130.033 54.4053 130.477 54.2756C130.94 54.146 131.292 54.0348 131.533 53.9422C131.774 53.8496 131.987 53.7941 132.172 53.7756C132.32 53.757 132.44 53.7848 132.533 53.8589C132.644 53.933 132.7 54.0811 132.7 54.3034V71.4442C132.7 72.5369 133.422 73.0832 134.867 73.0832C135.07 73.0832 135.2 73.1388 135.256 73.2499C135.311 73.3425 135.339 73.4351 135.339 73.5277C135.339 73.787 135.182 73.9444 134.867 74L130.45 74.3056C130.32 74.3056 130.246 74.25 130.227 74.1389C130.209 74.0278 130.199 73.8981 130.199 73.75V72.6387H130.116C129.653 73.1203 129.07 73.5277 128.366 73.8611C127.681 74.1759 126.986 74.3334 126.282 74.3334ZM127.227 72.9443C127.931 72.9443 128.514 72.8054 128.977 72.5276C129.44 72.2313 129.838 71.9072 130.172 71.5553V64.2211C130.079 63.9063 129.903 63.5915 129.644 63.2766C129.403 62.9432 129.07 62.6654 128.644 62.4432C128.236 62.2024 127.736 62.082 127.144 62.082C126.069 62.082 125.162 62.5913 124.421 63.61C123.68 64.6101 123.31 66.0176 123.31 67.8327C123.31 68.7031 123.449 69.5365 123.727 70.3329C124.023 71.1108 124.458 71.7405 125.032 72.222C125.606 72.7036 126.338 72.9443 127.227 72.9443ZM151.556 74.5556C150 74.5556 148.574 74.1852 147.277 73.4444C145.981 72.7036 144.934 71.6479 144.138 70.2774C143.36 68.9068 142.971 67.2678 142.971 65.3602C142.971 63.4711 143.342 61.8227 144.083 60.4152C144.823 58.9891 145.87 57.8871 147.222 57.1093C148.592 56.3129 150.204 55.9147 152.056 55.9147C152.722 55.9147 153.408 55.9795 154.111 56.1091C154.834 56.2388 155.5 56.461 156.112 56.7759C156.723 57.0722 157.214 57.4704 157.584 57.9705C157.973 58.4705 158.167 59.091 158.167 59.8318C158.186 60.6282 157.945 61.3319 157.445 61.9431C156.945 62.5358 156.241 62.8321 155.334 62.8321C154.778 62.8321 154.38 62.7025 154.139 62.4432C153.917 62.1654 153.815 61.9616 153.834 61.832C153.834 61.7764 153.945 61.6838 154.167 61.5542C154.408 61.406 154.639 61.193 154.861 60.9152C155.102 60.6189 155.223 60.23 155.223 59.7484C155.223 58.915 154.945 58.2575 154.389 57.776C153.834 57.2759 153.046 57.0259 152.028 57.0259C150.917 57.0259 149.916 57.3408 149.027 57.9705C148.157 58.6002 147.472 59.5262 146.972 60.7485C146.472 61.9524 146.222 63.434 146.222 65.1935C146.222 66.6751 146.481 68.0271 146.999 69.2495C147.537 70.4533 148.277 71.4164 149.222 72.1387C150.185 72.8425 151.296 73.1944 152.556 73.1944C153.556 73.1944 154.408 72.9906 155.111 72.5832C155.834 72.1572 156.482 71.4812 157.056 70.5552C157.223 70.2403 157.519 70.2125 157.945 70.4718C158.112 70.583 158.241 70.7219 158.334 70.8885C158.427 71.0367 158.408 71.1941 158.279 71.3608C157.575 72.2498 156.908 72.9258 156.278 73.3888C155.649 73.8333 154.963 74.1389 154.223 74.3056C153.482 74.4723 152.593 74.5556 151.556 74.5556ZM167.581 74.2778C167.581 74.2778 167.479 74.0185 167.276 73.4999C167.09 72.9628 166.84 72.2683 166.526 71.4164C166.229 70.5459 165.887 69.6014 165.498 68.5827C165.127 67.5456 164.748 66.5177 164.359 65.4991C163.988 64.4619 163.646 63.5174 163.331 62.6654C163.034 61.8135 162.784 61.1282 162.581 60.6096C162.395 60.0911 162.303 59.8318 162.303 59.8318C162.007 59.0724 161.71 58.5261 161.414 58.1927C161.118 57.8593 160.673 57.6371 160.08 57.526C159.821 57.4704 159.636 57.4241 159.525 57.3871C159.432 57.35 159.386 57.1833 159.386 56.887C159.386 56.5722 159.497 56.4055 159.719 56.387C159.941 56.3499 160.201 56.3314 160.497 56.3314C161.738 56.3499 162.701 56.5814 163.386 57.0259C164.072 57.4519 164.618 58.1927 165.025 59.2484L169.054 70.0829H169.137L172.971 58.9428C173.174 58.3501 173.184 57.9797 172.998 57.8316C172.813 57.6649 172.397 57.5815 171.748 57.5815C171.563 57.5815 171.406 57.563 171.276 57.526C171.146 57.4889 171.072 57.313 171.054 56.9981C171.054 56.85 171.091 56.7111 171.165 56.5814C171.239 56.4518 171.359 56.387 171.526 56.387C172.119 56.4055 172.628 56.424 173.054 56.4425C173.499 56.461 173.999 56.4703 174.554 56.4703C174.925 56.4703 175.23 56.4703 175.471 56.4703C175.712 56.4518 175.952 56.4425 176.193 56.4425C176.453 56.424 176.777 56.4055 177.166 56.387C177.351 56.387 177.48 56.4518 177.555 56.5814C177.629 56.7111 177.666 56.85 177.666 56.9981C177.647 57.313 177.573 57.4889 177.443 57.526C177.332 57.563 177.175 57.5815 176.971 57.5815C176.267 57.5815 175.712 57.7112 175.304 57.9705C174.897 58.2298 174.545 58.7298 174.249 59.4706C174.249 59.4521 174.147 59.7114 173.943 60.2485C173.758 60.7671 173.508 61.4708 173.193 62.3598C172.878 63.2303 172.526 64.1934 172.137 65.249C171.767 66.3047 171.387 67.3604 170.998 68.4161C170.609 69.4717 170.257 70.4441 169.943 71.333C169.628 72.222 169.368 72.9351 169.165 73.4722C168.979 74.0093 168.887 74.2778 168.887 74.2778H167.581Z" fill="black"/>
</svg>
