<svg width="163" height="164" viewBox="0 0 163 164" fill="none" xmlns="http://www.w3.org/2000/svg">
<path d="M63.3204 161.506L2.85645 100.419L75.2745 27.2544L135.738 88.3414L63.3204 161.506Z" fill="white"/>
<path d="M163 103.812C163 121.944 151.491 137.608 135.542 143.422V90.8358L63.1238 164L0 100.236L39.4226 60.4073V24.3846C39.4226 10.9584 50.2796 0 63.5689 0C76.8581 0 87.7047 10.9584 87.7047 24.3846V37.3611L112.948 62.875C115.608 62.1954 118.485 61.9758 121.59 61.9758C144.401 61.7562 163 80.7661 163 103.812ZM87.4874 74.9523H83.7201V68.9084C81.2775 69.8077 79.2903 72.0454 79.2903 74.9523C79.2903 78.5284 82.1676 81.2158 85.4899 81.2158C88.8122 81.2158 91.6894 78.3089 91.6894 74.9523C91.6894 72.0454 89.9196 69.8077 87.2597 68.9084V74.9523H87.4874ZM43.19 56.6011L74.8606 24.6042L83.9374 33.785V24.6042C83.9374 13.1961 74.8606 4.02576 63.5689 4.02576C52.2668 4.02576 43.19 13.1961 43.19 24.6042V56.6011ZM132.882 88.3785L87.4874 42.5057V65.1127C92.1345 66.0015 95.4568 70.0273 95.4568 74.9523C95.4568 80.5465 91.027 85.0219 85.4899 85.0219C79.9527 85.0219 75.523 80.5465 75.523 74.9523C75.523 70.0273 79.0626 66.0015 83.4924 65.1127V38.9296L74.4155 29.7592L4.65744 100.236L63.1238 158.855L132.882 88.3785Z" fill="black"/>
</svg>
