<svg width="342" height="675" viewBox="0 0 342 675" fill="none" xmlns="http://www.w3.org/2000/svg">
<path d="M288.626 3.30371H53.5864C28.1126 3.30371 7.43359 23.9822 7.43359 49.4553V625.55C7.43359 651.023 28.1126 671.695 53.5864 671.695H288.626C314.099 671.695 334.772 651.023 334.772 625.55V49.4553C334.772 23.9822 314.099 3.30371 288.626 3.30371ZM210.39 24.478C212.706 24.478 214.526 26.2979 214.526 28.6136C214.526 30.9294 212.706 32.7493 210.39 32.7493C208.074 32.7493 206.254 30.9294 206.254 28.6136C206.254 26.2979 208.237 24.478 210.39 24.478ZM149.357 25.8021H189.052C190.539 25.8021 191.864 26.9569 191.864 28.6136C191.864 30.2643 190.539 31.4252 189.052 31.4252H149.357C147.863 31.4252 146.539 30.2643 146.539 28.6136C146.539 26.9569 147.863 25.8021 149.357 25.8021ZM317.903 628.192C317.903 643.247 305.665 655.485 290.609 655.485H51.9297C36.88 655.485 24.6359 643.247 24.6359 628.192V47.6354C24.6359 32.58 36.88 20.3423 51.9297 20.3423H87.4891V27.7853C87.4891 36.2199 94.4365 43.1672 102.877 43.1672H239.667C248.102 43.1672 255.049 36.2199 255.049 27.7853V20.3423H290.446C305.495 20.3423 317.739 32.58 317.739 47.6354V628.192H317.903Z" fill="black"/>
<path d="M338.082 154.32V49.4529C338.082 45.9823 337.756 42.6689 337.091 39.5309C336.764 37.8742 336.432 36.3868 335.936 34.7301C335.271 32.4144 334.279 30.0986 333.288 27.9522C332.629 26.4648 331.8 25.1406 330.972 23.8165C330.143 22.4923 329.321 21.1682 328.323 19.844C326.836 17.8609 325.349 16.2102 323.692 14.3903C322.537 13.2294 321.382 12.2378 320.221 11.2462C311.623 4.13569 300.703 0 288.791 0H53.5892C41.6776 0 30.5944 4.29894 22.1595 11.2462C21.0047 12.2378 19.8437 13.3987 18.6888 14.3903C17.0321 16.0409 15.3754 17.8609 14.0572 19.844C13.0596 21.1682 12.2372 22.4923 11.4089 23.8165C10.5805 25.1406 9.75214 26.628 9.09307 27.9522C7.93215 30.2679 7.10982 32.4144 6.28146 34.7301C5.78564 36.3868 5.45309 37.8742 5.12053 39.5309C4.46146 42.6689 4.12891 46.1456 4.12891 49.4529V625.547C4.12891 652.84 26.2953 675 53.5892 675H288.628C315.922 675 338.082 652.84 338.082 625.547V154.32ZM334.775 154.32V625.71C334.775 651.184 314.102 671.862 288.628 671.862H53.5892C28.1153 671.862 7.43633 651.184 7.43633 625.71V49.6162C7.43633 23.9797 28.1153 3.30734 53.5892 3.30734H288.628C314.102 3.30734 334.775 23.9797 334.775 49.4529V154.32Z" fill="#FCE9D8"/>
<path d="M0 92.5065C0 90.2257 1.84895 88.3767 4.12975 88.3767V88.3767V116.459V116.459C1.84895 116.459 0 114.61 0 112.329V92.5065Z" fill="#FCE9D8"/>
<path d="M0 140.411C0 138.131 1.84895 136.282 4.12975 136.282V136.282V187.491V187.491C1.84895 187.491 0 185.642 0 183.361V140.411Z" fill="#FCE9D8"/>
<path d="M0 201.532C0 199.251 1.84895 197.402 4.12975 197.402V197.402V248.611V248.611C1.84895 248.611 0 246.762 0 244.481V201.532Z" fill="#FCE9D8"/>
<path d="M336.988 152.801V152.801C339.269 152.801 341.118 154.65 341.118 156.931V230.44C341.118 232.721 339.269 234.57 336.988 234.57V234.57V152.801Z" fill="#FCE9D8"/>
<rect x="146.193" y="25.6045" width="46.2532" height="5.78165" rx="2.89083" fill="#D9D9D9"/>
<rect x="205.66" y="23.9526" width="9.08545" height="9.08545" rx="4.54273" fill="#D9D9D9"/>
</svg>
