<svg width="932" height="196" viewBox="0 0 932 196" fill="none" xmlns="http://www.w3.org/2000/svg">
<path d="M873.402 130.813L867.994 96.3183L816.717 64.0578C825.48 58.2776 832.568 56.4154 837.79 58.4638C840.959 59.7711 842.821 62.1957 844.687 64.8064C846.739 67.6035 848.791 70.4005 852.706 71.7039C854.195 72.2626 855.503 72.4488 857.182 72.4488C862.963 72.4488 870.046 68.9069 878.251 61.8232L876.385 59.5849C866.877 67.7897 859.231 70.9591 853.637 68.907C850.653 67.7897 848.791 65.5513 847.112 62.9405C845.246 60.3297 843.011 57.3465 838.907 55.6668C832.382 53.056 823.991 55.2944 814.106 62.1957L811.682 60.8884L814.855 127.085L842.076 149.085L839.652 150.579L850.281 169.04L886.642 147.968L876.013 129.51L873.402 130.813ZM931.022 166.057V159.901L917.409 161.767V161.58L925.986 150.206L920.579 147.037L914.985 159.715H914.798L909.204 147.037L903.61 150.206L912.188 161.208V161.58L898.947 159.901V166.057L912.374 164.377V164.564L903.796 175.565L909.018 178.921L914.985 166.057H915.171L920.579 178.735L926.359 175.565L917.595 164.75V164.564L931.022 166.057Z" fill="#222FE6"/>
<path d="M812.059 47.8387C804.971 47.8387 799.005 53.6189 799.005 60.8889C799.005 62.941 799.563 64.8069 800.308 66.6691C678.547 169.041 579.163 207.45 504.575 181.16C461.13 165.868 437.823 133.797 413.022 99.6745C388.594 66.1104 363.235 31.4291 316.807 12.595C239.984 -18.7307 139.106 8.49446 16.9688 92.9632L18.6485 95.384C139.851 11.2915 239.984 -15.7475 316.062 15.0195C361.745 33.4775 386.732 67.7902 410.97 101.164C435.957 135.477 459.64 168.106 503.83 183.585C519.308 188.992 535.718 191.789 553.245 191.789C621.304 191.789 704.651 150.579 801.988 68.9074C804.412 71.8907 807.954 73.7566 812.059 73.7566C819.142 73.7566 825.109 67.9764 825.109 60.7026C825.109 53.6189 819.329 47.8387 812.059 47.8387Z" fill="#222FE6"/>
<path d="M811.682 60.8887L814.855 62.9408L841.704 109.369C844.315 108.624 847.112 109.745 848.415 111.98C850.095 114.777 849.164 118.322 846.181 119.998C843.384 121.678 839.838 120.743 838.162 117.76C836.855 115.339 837.227 112.352 839.093 110.676L811.682 63.127V60.8887ZM877.134 131.186L875.64 128.762L839.279 150.207L840.773 152.631L877.134 131.186Z" fill="#FFFDFD"/>
<path d="M504.201 170.65C510.676 170.65 515.832 175.966 515.832 182.277C515.832 188.764 510.689 193.907 504.201 193.907C497.718 193.907 492.575 188.764 492.575 182.277C492.575 175.806 497.891 170.65 504.201 170.65ZM13.0537 84.5015C19.5412 84.5015 24.6846 89.6448 24.6846 96.1323C24.6845 102.616 19.5414 107.758 13.0537 107.758C6.74261 107.758 1.42392 102.602 1.42383 96.1323C1.42383 89.6452 6.56986 84.5016 13.0537 84.5015ZM316.434 2.08545C322.904 2.08545 328.06 7.40085 328.061 13.7114C328.061 20.1992 322.917 25.3423 316.434 25.3423C309.946 25.3422 304.804 20.1989 304.804 13.7114C304.804 7.2414 310.119 2.08555 316.434 2.08545Z" stroke="#222FE6" stroke-width="2.8472"/>
</svg>
