<svg width="47" height="46" viewBox="0 0 47 46" fill="none" xmlns="http://www.w3.org/2000/svg">
<path fill-rule="evenodd" clip-rule="evenodd" d="M23.472 1C35.7849 1 45.7664 10.9815 45.7664 23.2942C45.7664 35.6072 35.7849 45.5886 23.472 45.5886C11.1592 45.5886 1.17773 35.6072 1.17773 23.2942C1.17773 10.9815 11.1592 1 23.472 1ZM11.2591 30.2554V16.796L22.6157 25.9316C23.0868 26.3105 23.8485 26.3177 24.3086 25.9476L35.685 16.796V30.2554C35.685 30.6851 35.3336 31.0364 34.9042 31.0364H12.0401C11.6105 31.0364 11.2591 30.6851 11.2591 30.2554ZM10.4801 12.6446C9.5603 12.9485 8.83596 13.693 8.5602 14.6248C8.48175 14.8902 8.4395 15.1708 8.4395 15.4607V31.1281C8.4395 32.7586 9.77337 34.0924 11.4038 34.0924H35.5403C37.1707 34.0924 38.5046 32.7586 38.5046 31.1281V15.4607C38.5046 15.1708 38.4624 14.8904 38.3839 14.625C38.1082 13.693 37.384 12.9485 36.464 12.6446C36.173 12.5485 35.8625 12.4964 35.5403 12.4964H11.4038C11.0816 12.4964 10.7711 12.5485 10.4801 12.6446ZM14.0948 15.5524H32.8493L24.3086 22.4227C23.8485 22.7928 23.0868 22.7856 22.6157 22.4068L14.0948 15.5524Z" fill="white" stroke="white" stroke-width="0.755906" stroke-miterlimit="22.9256"/>
<path fill-rule="evenodd" clip-rule="evenodd" d="M11.2591 30.2556V16.7962L22.6156 25.9318C23.0867 26.3107 23.8484 26.3179 24.3086 25.9478L35.6849 16.7962V30.2556C35.6849 30.6853 35.3336 31.0366 34.9041 31.0366H12.0401C11.6104 31.0366 11.2591 30.6853 11.2591 30.2556ZM10.4801 12.6448C9.56026 12.9487 8.83591 13.6932 8.56015 14.625C8.4817 14.8904 8.43945 15.171 8.43945 15.4609V31.1283C8.43945 32.7587 9.77332 34.0926 11.4037 34.0926H35.5403C37.1707 34.0926 38.5046 32.7587 38.5046 31.1283V15.4609C38.5046 15.171 38.4623 14.8906 38.3839 14.6252C38.1081 13.6932 37.3839 12.9487 36.4639 12.6448C36.1729 12.5487 35.8625 12.4966 35.5403 12.4966H11.4037C11.0815 12.4966 10.7711 12.5487 10.4801 12.6448ZM14.0948 15.5526H32.8492L24.3086 22.4229C23.8484 22.793 23.0867 22.7858 22.6156 22.407L14.0948 15.5526Z" fill="#1D321C"/>
</svg>
