<svg width="45" height="45" viewBox="0 0 45 45" fill="none" xmlns="http://www.w3.org/2000/svg">
<path fill-rule="evenodd" clip-rule="evenodd" d="M17.5756 14.2249L14.0642 12.3527C13.6889 12.1526 13.3689 12.3762 13.3527 12.8497L13.2033 17.2735C12.2938 18.5528 11.7578 20.1137 11.7578 21.794C11.7578 26.1026 15.2828 29.6276 19.5914 29.6276H20.2397C18.9758 30.294 18.0807 31.5747 17.9587 33.0655C16.4253 33.2116 14.8314 33.3217 14.296 32.948C12.7413 31.8629 13.1447 28.9598 10.7225 28.7267C10.2326 28.6796 9.39157 28.6316 9.42683 29.4372C9.45922 30.1753 10.547 29.4976 11.2241 30.3776C12.0542 31.4566 11.9669 33.2784 13.1258 33.993C14.1696 34.6364 15.8627 34.3644 17.9446 34.4488V39.052C10.4913 37.1225 4.98664 30.3516 4.98664 22.295C4.98664 12.736 12.736 4.98665 22.295 4.98665C31.854 4.98665 39.6033 12.736 39.6033 22.295C39.6033 30.4039 34.027 37.2105 26.4999 39.0891V33.4147C26.4999 31.7764 25.5662 30.3454 24.2048 29.6276H25.1431C29.4517 29.6276 32.9767 26.1026 32.9767 21.7938C32.9767 20.1516 32.4645 18.6231 31.5921 17.3604V17.3602L31.4365 12.7618C31.4222 12.3367 31.0686 12.1713 30.6504 12.3943L27.1972 14.2352C26.5421 14.056 25.8532 13.9603 25.1431 13.9603H19.5914C18.8951 13.9603 18.2195 14.0523 17.5756 14.2249ZM17.9446 44.1657C19.3515 44.4441 20.8063 44.59 22.295 44.59C23.7325 44.59 25.1382 44.4539 26.4999 44.194C36.8026 42.2277 44.59 33.1706 44.59 22.295C44.59 9.98192 34.6081 0 22.295 0C9.9819 0 0 9.98192 0 22.295C0 33.1194 7.71405 42.1422 17.9446 44.1657Z" fill="white"/>
</svg>
