<svg width="80" height="80" viewBox="0 0 80 80" fill="none" xmlns="http://www.w3.org/2000/svg">
<circle cx="40" cy="40" r="38.5" stroke="#1D321C" stroke-width="3"/>
<path fill-rule="evenodd" clip-rule="evenodd" d="M24.3847 33.927L19.497 38.2863C18.8903 38.8275 18.8306 39.773 19.3645 40.3881C19.8984 41.0032 20.8311 41.064 21.4379 40.5224L24.3847 37.8943V56.6486C24.3847 58.492 25.8723 60 27.6906 60H35.8945V48.3322C35.8945 46.079 37.7125 44.236 39.9349 44.236C42.1572 44.236 43.9752 46.079 43.9752 48.3322V60H52.1795C53.9979 60 55.4854 58.492 55.4854 56.6486V37.7782L58.5621 40.5224C59.1689 41.064 60.1016 41.0032 60.6355 40.3881C61.1693 39.773 61.1098 38.8275 60.503 38.2863L55.4854 33.811L42.2242 21.9836L40 20L37.7758 21.9836L24.3847 33.927Z" fill="#1D321C"/>
</svg>
