<svg width="46" height="46" viewBox="0 0 46 46" fill="none" xmlns="http://www.w3.org/2000/svg">
<path fill-rule="evenodd" clip-rule="evenodd" d="M23.0599 1C35.3726 1 45.3541 10.9815 45.3541 23.2942C45.3541 35.607 35.3726 45.5885 23.0599 45.5885C10.7471 45.5885 0.765625 35.607 0.765625 23.2942C0.765625 10.9815 10.7471 1 23.0599 1ZM18.0042 11.762H28.2418C31.8178 11.762 34.7435 14.6877 34.7435 18.2637V28.6265C34.7435 32.2025 31.8178 35.1282 28.2418 35.1282H18.0042C14.4282 35.1282 11.5025 32.2025 11.5025 28.6265V18.2637C11.5025 14.6877 14.4282 11.762 18.0042 11.762ZM29.2551 18.8018H29.2553C30.0851 18.8018 30.764 18.1229 30.764 17.2931V17.2767C30.764 16.4469 30.0851 15.7679 29.2553 15.7679H29.2551C28.4254 15.7679 27.7464 16.4469 27.7464 17.2767V17.2931C27.7464 18.1229 28.4254 18.8018 29.2551 18.8018ZM23.1229 29.4407C26.403 29.4407 29.0863 26.7572 29.0863 23.4773V23.4131C29.0863 20.133 26.403 17.4495 23.1229 17.4495C19.8431 17.4495 17.1596 20.133 17.1596 23.4131V23.4773C17.1596 26.7572 19.8431 29.4407 23.1229 29.4407ZM23.1229 27.143H23.1231C25.1459 27.143 26.801 25.4879 26.801 23.4651V23.4252C26.801 21.4023 25.1459 19.7473 23.1231 19.7473H23.1229C21.1 19.7473 19.445 21.4023 19.445 23.4252V23.4651C19.445 25.4879 21.1 27.143 23.1229 27.143ZM18.0042 32.8181H28.2418C30.554 32.8181 32.4457 30.9265 32.4457 28.6141V18.2763C32.4457 15.9639 30.554 14.0723 28.2418 14.0723H18.0042C15.692 14.0723 13.8002 15.9639 13.8002 18.2763V28.6141C13.8002 30.9265 15.692 32.8181 18.0042 32.8181Z" fill="white" stroke="white" stroke-width="0.755906" stroke-miterlimit="22.9256"/>
<path fill-rule="evenodd" clip-rule="evenodd" d="M18.0046 11.7617H28.2423C31.8182 11.7617 34.744 14.6874 34.744 18.2634V28.6263C34.744 32.2023 31.8182 35.128 28.2423 35.128H18.0046C14.4287 35.128 11.5029 32.2023 11.5029 28.6263V18.2634C11.5029 14.6874 14.4287 11.7617 18.0046 11.7617ZM29.2556 18.8015H29.2558C30.0856 18.8015 30.7645 18.1226 30.7645 17.2928V17.2764C30.7645 16.4466 30.0856 15.7677 29.2558 15.7677H29.2556C28.4258 15.7677 27.7469 16.4466 27.7469 17.2764V17.2928C27.7469 18.1226 28.4258 18.8015 29.2556 18.8015ZM23.1234 29.4405C26.4035 29.4405 29.0868 26.757 29.0868 23.477V23.4128C29.0868 20.1327 26.4035 17.4492 23.1234 17.4492C19.8436 17.4492 17.1601 20.1327 17.1601 23.4128V23.477C17.1601 26.757 19.8436 29.4405 23.1234 29.4405ZM23.1234 27.1427H23.1235C25.1464 27.1427 26.8014 25.4876 26.8014 23.4648V23.4249C26.8014 21.4021 25.1464 19.747 23.1235 19.747H23.1234C21.1005 19.747 19.4455 21.4021 19.4455 23.4249V23.4648C19.4455 25.4876 21.1005 27.1427 23.1234 27.1427ZM18.0046 32.8178H28.2423C30.5544 32.8178 32.4462 30.9262 32.4462 28.6139V18.276C32.4462 15.9636 30.5544 14.0721 28.2423 14.0721H18.0046C15.6925 14.0721 13.8007 15.9636 13.8007 18.276V28.6139C13.8007 30.9262 15.6925 32.8178 18.0046 32.8178Z" fill="#1D321C" stroke="white" stroke-width="0.755906" stroke-miterlimit="22.9256"/>
</svg>
