<svg width="47" height="46" viewBox="0 0 47 46" fill="none" xmlns="http://www.w3.org/2000/svg">
<path fill-rule="evenodd" clip-rule="evenodd" d="M23.6487 1C35.9615 1 45.943 10.9815 45.943 23.2942C45.943 35.607 35.9615 45.5885 23.6487 45.5885C11.336 45.5885 1.35449 35.607 1.35449 23.2942C1.35449 10.9815 11.336 1 23.6487 1ZM30.9477 28.6507V37.447H37.2809V28.6507V25.8731C37.2809 22.1359 34.5267 19.0107 30.9477 18.4273C30.5534 18.3629 30.1491 18.3296 29.7374 18.3296H29.3329C27.0279 18.3296 25.142 20.2155 25.142 22.5204V18.3296H18.8088V37.447H25.142V28.6507V27.3604C25.142 25.223 26.4417 23.49 28.0448 23.49C29.648 23.49 30.9477 25.223 30.9477 27.3604V28.6507ZM13.531 17.1568C15.8142 17.1568 17.6652 15.3058 17.6652 13.0226C17.6652 10.7394 15.8142 8.88839 13.531 8.88839C11.2478 8.88839 9.39676 10.7394 9.39676 13.0226C9.39676 15.3058 11.2478 17.1568 13.531 17.1568ZM10.3644 18.3296H16.6976V37.447H10.3644V18.3296Z" fill="white" stroke="white" stroke-width="0.755906" stroke-miterlimit="22.9256"/>
<path fill-rule="evenodd" clip-rule="evenodd" d="M30.9474 28.6505V37.4468H37.2807V28.6505V25.8729C37.2807 22.1357 34.5264 19.0105 30.9474 18.4271C30.5532 18.3627 30.1488 18.3294 29.7371 18.3294H29.3326C27.0276 18.3294 25.1417 20.2153 25.1417 22.5202V18.3294H18.8085V37.4468H25.1417V28.6505V27.3602C25.1417 25.2228 26.4414 23.4898 28.0445 23.4898C29.6478 23.4898 30.9474 25.2228 30.9474 27.3602V28.6505ZM13.5307 17.1566C15.8139 17.1566 17.6649 15.3056 17.6649 13.0224C17.6649 10.7392 15.8139 8.88818 13.5307 8.88818C11.2475 8.88818 9.39648 10.7392 9.39648 13.0224C9.39648 15.3056 11.2475 17.1566 13.5307 17.1566ZM10.3641 18.3294H16.6973V37.4468H10.3641V18.3294Z" fill="#1D321C"/>
</svg>
