<svg width="46" height="46" viewBox="0 0 46 46" fill="none" xmlns="http://www.w3.org/2000/svg">
<path fill-rule="evenodd" clip-rule="evenodd" d="M23.2942 1C35.607 1 45.5886 10.9816 45.5886 23.2942C45.5886 35.607 35.607 45.5886 23.2942 45.5886C10.9816 45.5886 1 35.607 1 23.2942C1 10.9816 10.9816 1 23.2942 1ZM13.0974 24.1009V24.1007C13.0685 23.7799 13.0538 23.4552 13.0538 23.1268C13.0538 17.1933 17.8639 12.3832 23.7973 12.3832C29.7311 12.3832 34.541 17.1933 34.541 23.1268C34.541 29.0605 29.7311 33.8705 23.7973 33.8705C23.7014 33.8705 23.6057 33.8691 23.5103 33.8668C21.4489 33.8126 19.532 33.178 17.9174 32.12L13.9862 33.0546L14.9105 29.1661C13.9106 27.6973 13.265 25.968 13.0974 24.1009ZM20.6971 26.687C17.8825 24.1579 15.573 19.6487 17.5068 17.4233C18.1948 16.6316 19.7918 15.9803 20.5672 16.6871C21.6238 17.6498 21.8162 19.1414 21.6259 20.4208C21.522 21.1197 20.8553 21.6581 20.3662 21.7517C20.8347 22.8688 21.5814 23.7713 22.5417 24.6341C23.5019 25.497 24.4789 26.1434 25.6396 26.4902C25.6805 25.9937 26.1449 25.2735 26.8287 25.0956C28.0805 24.7703 29.5841 24.8026 30.6541 25.7504C31.4393 26.4461 30.962 28.1033 30.2482 28.872C28.2415 31.0318 23.5118 29.2161 20.6971 26.687ZM11.6805 30.0603L10.0129 37.0755L17.1187 35.3862C19.1025 36.4692 21.378 37.0847 23.7973 37.0847C31.5063 37.0847 37.7552 30.8358 37.7552 23.1268C37.7552 15.4181 31.5063 9.16901 23.7973 9.16901C16.0886 9.16901 9.83955 15.4181 9.83955 23.1268C9.83955 25.6505 10.5091 28.0177 11.6805 30.0603Z" fill="white" stroke="white" stroke-width="0.755906" stroke-miterlimit="22.9256"/>
<path fill-rule="evenodd" clip-rule="evenodd" d="M13.0977 24.1008V24.1007C13.0688 23.7798 13.0541 23.4551 13.0541 23.1267C13.0541 17.1933 17.8642 12.3832 23.7976 12.3832C29.7314 12.3832 34.5413 17.1933 34.5413 23.1267C34.5413 29.0605 29.7314 33.8704 23.7976 33.8704C23.7017 33.8704 23.606 33.8691 23.5106 33.8667C21.4492 33.8126 19.5323 33.1779 17.9177 32.12L13.9865 33.0545L14.9108 29.1661C13.9109 27.6973 13.2653 25.968 13.0977 24.1008ZM20.6974 26.6869C17.8828 24.1578 15.5733 19.6486 17.5071 17.4233C18.1951 16.6315 19.7921 15.9803 20.5675 16.687C21.6241 17.6498 21.8165 19.1414 21.6262 20.4208C21.5223 21.1196 20.8556 21.6581 20.3665 21.7516C20.835 22.8687 21.5816 23.7713 22.542 24.6341C23.5022 25.4969 24.4792 26.1433 25.6399 26.4901C25.6808 25.9936 26.1452 25.2734 26.8289 25.0956C28.0808 24.7702 29.5844 24.8026 30.6544 25.7504C31.4396 26.446 30.9623 28.1033 30.2485 28.8719C28.2418 31.0317 23.5121 29.216 20.6974 26.6869ZM11.6808 30.0603L10.0132 37.0754L17.119 35.3862C19.1028 36.4691 21.3783 37.0846 23.7976 37.0846C31.5066 37.0846 37.7555 30.8357 37.7555 23.1267C37.7555 15.418 31.5066 9.16895 23.7976 9.16895C16.0889 9.16895 9.83984 15.418 9.83984 23.1267C9.83984 25.6504 10.5094 28.0176 11.6808 30.0603Z" fill="#1D321C"/>
</svg>
